PathFileType   4   (X/Y/Z)
DataRate	CameraRate	NumFrames	NumMarkers	Units	OrigDataRate	OrigDataStartFrame	OrigNumFrames
120.0	120.0	5	37	mm	120.0	49	194
Frame#	Time	midhip	hip_r	hip_l	knee_r	knee_l	ankle_r	ankle_l	midasis	asis_r	asis_l	psis_r	psis_l	epicondLat_r	epicondLat_l	epicondMed_r	epicondMed_l	malleolusLat_r	malleolusLat_l	malleolusMedv_r	malleolusMedv_l	neck	subclavicle_r	subclavicle_l	sternalnotch	xyphoidprocess	thighwand_r	thighwand_l	upperleg1_r	upperleg1_l	upperleg2_r	upperleg2_l	shankwand_r	shankwand_l	lowerleg1_r	lowerleg1_l	toe_r	toe_l
 	 	X1	Y1	Z1	X2	Y2	Z2	X3	Y3	Z3	X4	Y4	Z4	X5	Y5	Z5	X6	Y6	Z6	X7	Y7	Z7	X8	Y8	Z8	X9	Y9	Z9	X10	Y10	Z10	X11	Y11	Z11	X12	Y12	Z12	X13	Y13	Z13	X14	Y14	Z14	X15	Y15	Z15	X16	Y16	Z16	X17	Y17	Z17	X18	Y18	Z18	X19	Y19	Z19	X20	Y20	Z20	X21	Y21	Z21	X22	Y22	Z22	X23	Y23	Z23	X24	Y24	Z24	X25	Y25	Z25	X26	Y26	Z26	X27	Y27	Z27	X28	Y28	Z28	X29	Y29	Z29	X30	Y30	Z30	X31	Y31	Z31	X32	Y32	Z32	X33	Y33	Z33	X34	Y34	Z34	X35	Y35	Z35	X36	Y36	Z36	X37	Y37	Z37

	49	0.75000	931.437	679.529	-193.592	927.430	684.904	-126.377	923.645	684.144	-252.147	904.473	377.938	-166.090	1067.069	394.403	-253.090	815.715	55.436	-173.979	1144.642	78.321	-271.530	981.631	756.624	-191.386	984.503	757.201	-95.958	978.760	756.048	-286.814	833.333	776.416	-170.968	832.168	767.371	-224.072	910.182	371.080	-116.384	1059.483	390.808	-302.380	900.532	379.565	-217.913	1084.723	394.072	-197.137	814.903	54.841	-140.494	1131.751	77.023	-303.505	811.086	68.702	-199.365	1142.549	84.627	-242.597	879.236	1134.107	-196.487	960.330	1083.047	-135.608	948.760	1082.847	-265.481	948.036	1072.028	-202.572	956.895	928.222	-202.346	926.402	451.113	-29.659	1134.914	540.435	-306.960	954.334	517.170	-91.810	1055.206	565.320	-242.305	960.060	437.733	-118.982	1087.406	483.658	-232.298	839.638	152.435	-62.210	1191.152	196.827	-321.649	854.072	208.204	-120.157	1126.527	237.325	-286.329	909.275	36.879	-186.833	1232.149	88.388	-288.725
	50	0.75833	935.336	678.618	-193.843	931.417	684.070	-126.591	927.600	683.149	-252.359	907.387	377.290	-166.434	1071.521	393.637	-252.152	815.847	55.418	-173.982	1158.017	79.479	-271.303	985.505	755.782	-191.703	988.400	756.480	-96.334	982.611	755.084	-287.071	837.188	775.429	-171.532	836.074	766.250	-224.589	913.188	370.382	-116.746	1064.097	389.912	-301.457	904.407	378.673	-218.459	1091.319	393.489	-195.886	815.044	54.861	-140.497	1145.160	77.888	-303.278	811.493	68.773	-199.274	1155.591	85.989	-242.454	882.103	1133.066	-197.038	963.333	1082.109	-136.167	951.776	1081.736	-266.009	951.059	1070.997	-203.086	960.073	927.198	-202.698	929.865	450.418	-30.072	1138.939	539.494	-305.991	957.915	516.370	-92.297	1058.311	564.051	-241.502	963.747	436.885	-119.461	1092.210	482.952	-231.275	840.673	152.424	-62.284	1201.043	199.614	-321.115	855.780	208.094	-120.236	1135.469	238.365	-285.861	909.328	36.849	-186.769	1245.390	91.722	-288.197
	51	0.76667	939.282	677.695	-194.113	935.411	683.234	-126.828	931.578	682.149	-252.594	910.267	376.626	-166.758	1075.946	392.849	-251.310	815.961	55.430	-173.981	1170.694	80.716	-270.986	989.420	754.916	-192.038	992.325	755.738	-96.723	986.515	754.094	-287.353	841.116	774.460	-172.106	840.020	765.165	-225.145	916.186	369.673	-117.090	1068.716	389.022	-300.636	908.064	377.862	-218.988	1096.095	392.537	-195.367	815.182	54.905	-140.495	1157.854	78.834	-302.953	811.739	68.848	-199.446	1168.142	87.428	-242.267	885.003	1131.974	-197.652	966.388	1081.183	-136.731	954.850	1080.613	-266.554	954.096	1069.971	-203.629	963.399	926.176	-203.041	933.373	449.708	-30.459	1143.032	538.620	-305.020	961.540	515.559	-92.798	1061.765	562.847	-240.796	967.383	436.056	-119.976	1096.306	482.103	-230.603	841.734	152.410	-62.366	1210.407	202.226	-320.616	857.619	207.689	-120.681	1143.745	239.164	-285.213	909.386	36.822	-186.706	1257.901	94.929	-287.661
	52	0.77500	943.281	676.770	-194.411	939.419	682.401	-127.094	935.586	681.152	-252.858	913.104	375.958	-167.058	1080.367	392.054	-250.563	816.057	55.478	-173.979	1182.638	81.974	-270.590	993.374	754.040	-192.397	996.278	754.985	-97.128	990.471	753.094	-287.665	845.109	773.506	-172.689	844.005	764.113	-225.735	919.155	368.964	-117.412	1073.354	388.150	-299.915	911.272	377.286	-219.542	1100.090	391.754	-194.457	815.314	54.980	-140.490	1169.804	79.804	-302.540	811.889	69.024	-199.684	1179.855	88.829	-242.001	887.934	1130.743	-198.341	969.424	1080.239	-137.303	957.924	1079.564	-267.201	957.148	1068.964	-204.187	966.903	925.188	-203.565	936.891	448.996	-30.816	1147.205	537.824	-304.078	965.119	514.766	-93.274	1065.247	561.813	-240.276	970.836	435.294	-120.569	1100.079	481.323	-229.787	842.809	152.398	-62.462	1219.253	204.618	-320.147	859.286	207.278	-120.921	1151.875	240.114	-284.848	909.446	36.802	-186.645	1269.665	97.935	-287.114
	53	0.78333	947.330	675.854	-194.740	943.448	681.577	-127.394	939.633	680.167	-253.157	915.894	375.295	-167.334	1084.805	391.268	-249.907	816.140	55.567	-173.980	1193.828	83.195	-270.127	997.370	753.165	-192.780	1000.258	754.233	-97.547	994.481	752.097	-288.012	849.158	772.571	-173.283	848.032	763.089	-226.351	922.075	368.268	-117.709	1078.022	387.304	-299.286	914.157	376.795	-219.935	1103.497	390.968	-193.906	815.440	55.090	-140.491	1180.990	80.747	-302.056	812.072	69.118	-199.786	1190.617	90.226	-241.470	890.914	1129.569	-199.090	972.346	1079.329	-137.839	960.976	1078.540	-267.891	960.219	1067.979	-204.753	970.187	924.226	-204.065	940.384	448.293	-31.142	1151.467	537.103	-303.193	968.511	514.034	-93.655	1068.861	561.041	-239.776	974.088	434.649	-121.071	1103.665	480.590	-229.137	843.888	152.394	-62.577	1227.597	206.755	-319.698	860.760	206.878	-121.170	1159.655	241.116	-284.597	909.506	36.790	-186.587	1280.676	100.673	-286.554
